<svg width="60" height="74" viewBox="0 0 60 74" fill="none" xmlns="http://www.w3.org/2000/svg">
<path fill-rule="evenodd" clip-rule="evenodd" d="M34.1184 1C41.5982 1 56.5581 5.98656 59.0514 22.1929C62.0607 38.2427 44.084 62.3639 36.9456 71.1756C35.4561 73.0144 32.7409 73.0369 31.2167 71.2268C23.6311 62.2187 4.13591 36.8684 9.18556 19.6996C11.6792 12.2198 21.652 1 34.1184 1ZM34.1205 34.6595C38.2515 34.6595 41.6003 31.3106 41.6003 27.1796C41.6003 23.0486 38.2515 19.6998 34.1205 19.6998C29.9895 19.6998 26.6406 23.0486 26.6406 27.1796C26.6406 31.3106 29.9895 34.6595 34.1205 34.6595Z" fill="#06677C" fill-opacity="0.38"/>
<path d="M26.1669 2.37012C12.8247 2.37012 2 12.6729 2 25.3622C2 39.963 18.1112 63.1011 24.0271 71.093C24.2726 71.4303 24.5945 71.7048 24.9664 71.8941C25.3382 72.0834 25.7496 72.182 26.1669 72.182C26.5841 72.182 26.9955 72.0834 27.3674 71.8941C27.7392 71.7048 28.0611 71.4303 28.3066 71.093C34.2225 63.1045 50.3337 39.9748 50.3337 25.3622C50.3337 12.6729 39.509 2.37012 26.1669 2.37012Z" stroke="#393939" stroke-width="3" stroke-linecap="round" stroke-linejoin="round"/>
<path d="M26.1699 34.5927C30.6189 34.5927 34.2255 30.9861 34.2255 26.5371C34.2255 22.0881 30.6189 18.4814 26.1699 18.4814C21.7209 18.4814 18.1143 22.0881 18.1143 26.5371C18.1143 30.9861 21.7209 34.5927 26.1699 34.5927Z" stroke="#393939" stroke-width="3" stroke-linecap="round" stroke-linejoin="round"/>
</svg>
