<svg width="66" height="61" viewBox="0 0 66 61" fill="none" xmlns="http://www.w3.org/2000/svg">
<path d="M29.5567 15.8381L23.5754 1.82235C23.1037 0.717098 22.0152 0.00143483 20.8283 0.189036C17.7282 0.679005 11.7862 2.43894 9.08859 8.76048C6.10252 15.7581 9.63235 35.0535 19.0588 45.0571C29.3915 56.0225 47.7236 58.8246 55.2013 57.573C61.6472 55.7235 64.0108 48.4079 64.8057 44.7133C65.0807 43.4351 64.3558 42.2028 63.1549 41.6859L49.3815 35.758C48.3614 35.319 47.185 35.4779 46.2968 36.1445C44.4672 37.5177 41.2275 39.8212 38.6863 40.9377C38.0896 41.1999 37.415 41.1955 36.8056 40.9645C30.2548 38.4807 26.744 33.9918 24.3638 29.4151C24.1496 29.0034 24.0303 28.5432 24.1064 28.0854C24.5694 25.3019 27.4951 21.1335 29.1457 18.9589C29.8254 18.0634 29.998 16.8721 29.5567 15.8381Z" fill="#06677C" fill-opacity="0.38"/>
<path d="M58.4707 41.9088L43.6193 35.6202C43.0378 35.3729 42.4028 35.2733 41.7723 35.3305C41.1418 35.3878 40.5358 35.6 40.0095 35.9479L32.0711 41.178C31.8927 41.298 31.6858 41.3702 31.4707 41.3877C31.2556 41.4051 31.0395 41.3672 30.8437 41.2776C25.7111 38.8205 21.5587 34.7367 19.0484 29.6771C18.9571 29.4848 18.9175 29.2724 18.9336 29.0606C18.9497 28.8487 19.021 28.6446 19.1404 28.4679L24.4155 20.5048C24.7599 19.9863 24.9688 19.3916 25.0236 18.7739C25.0784 18.1561 24.9773 17.5346 24.7295 16.9648L18.3591 2.2799C18.0344 1.53262 17.4735 0.909294 16.7604 0.503159C16.0473 0.0970245 15.2203 -0.0700814 14.403 0.0268412C10.4248 0.53243 6.76905 2.45151 4.1185 5.42559C1.46796 8.39967 0.00396529 12.2253 0 16.1879C0 40.3713 19.9147 60.0461 44.393 60.0461C48.404 60.0421 52.2763 58.5958 55.2867 55.9772C58.297 53.3586 60.2395 49.7468 60.7512 45.8166C60.8492 45.0093 60.6799 44.1924 60.2688 43.488C59.8578 42.7836 59.227 42.2296 58.4707 41.9088ZM58.2342 45.5024C57.801 48.8276 56.1572 51.8832 53.6101 54.0984C51.0629 56.3137 47.7865 57.537 44.393 57.5399C21.3134 57.5399 2.53675 38.9895 2.53675 16.1879C2.53963 12.8354 3.77783 9.59852 6.02003 7.08206C8.26223 4.56559 11.3551 2.94165 14.7207 2.5136C14.7707 2.50728 14.821 2.50415 14.8714 2.5042C15.1182 2.50649 15.3591 2.57992 15.5643 2.71548C15.7696 2.85104 15.9303 3.04283 16.0268 3.26733L22.3972 17.952C22.4799 18.1419 22.5135 18.3492 22.4953 18.5552C22.477 18.7612 22.4074 18.9595 22.2926 19.1324L17.0178 27.0958C16.6585 27.6361 16.4468 28.2591 16.4032 28.9042C16.3596 29.5493 16.4855 30.1945 16.7688 30.7773C19.5298 36.3413 24.0959 40.8323 29.7402 43.5347C30.3337 43.813 30.9901 43.9343 31.6453 43.8867C32.3004 43.8391 32.9319 43.6242 33.4777 43.2631L41.4162 38.033C41.5917 37.9171 41.7938 37.8464 42.004 37.8273C42.2142 37.8083 42.426 37.8415 42.6199 37.924L57.4712 44.2123C57.7224 44.3171 57.9324 44.4994 58.07 44.7319C58.2075 44.9645 58.2651 45.2348 58.2342 45.5024Z" fill="#393939"/>
</svg>
