<svg width="240" height="118" viewBox="0 0 240 118" fill="none" xmlns="http://www.w3.org/2000/svg">
<path d="M18.5762 77.6965C14.1763 87.3758 15.0757 107.697 15.0757 107.697L82.0762 107.197L82.5759 117.697H173.576L174.076 104.197L239.076 105.197C239.076 105.197 240.718 87.2237 235.576 77.6966C229.474 66.3895 209.076 58.1966 209.076 58.1966C209.076 58.1966 223.743 47.9219 223.076 37.6965C222.248 24.994 210.779 13.3796 198.076 14.1966C186.363 14.95 177.59 23.5037 176.576 35.1966C175.676 45.5727 190.076 58.1966 190.076 58.1966C190.076 58.1966 170.076 60.6965 160.576 77.6966C157.076 70.6965 139.076 64.1966 139.076 64.1966C139.076 64.1966 153.5 55 153.576 42.1966C153.663 27.5509 142.716 15.1234 128.076 14.6966C113.844 14.2818 101.524 24.9656 101.076 39.1966C100.5 57.5 118.076 65.6966 118.076 65.6966C118.076 65.6966 102.076 64.6964 92.5758 77.6965C91.5758 72.6965 89.3332 69.1953 84.5758 65.1965C79.2239 60.698 68.076 56.1966 68.076 56.1966C68.076 56.1966 78.885 46.5648 78 37C76.9441 25.588 69.9298 14.7581 58.576 13.1966C43.9395 11.1837 30.7237 24.947 31.576 39.6966C32.1014 48.79 43.576 59.6966 43.576 59.6966C43.576 59.6966 23.5763 66.6965 18.5762 77.6965Z" fill="#DEFAFF"/>
<path d="M115.008 58.0905C99.2525 58.0905 86.4287 45.2668 86.4287 29.5114C86.4287 13.7561 99.2525 0.932373 115.008 0.932373C130.763 0.932373 143.587 13.7561 143.587 29.5114C143.587 45.2668 130.763 58.0905 115.008 58.0905ZM115.008 7.24653C102.74 7.24653 92.7429 17.2289 92.7429 29.5114C92.7429 41.7789 102.725 51.7764 115.008 51.7764C127.275 51.7764 137.273 41.794 137.273 29.5114C137.273 17.2439 127.275 7.24653 115.008 7.24653Z" fill="#06677C"/>
<path d="M160.41 109.265H69.6063C67.8624 109.265 66.4492 107.852 66.4492 106.108V95.6298C66.4492 83.9186 71.0195 72.8989 79.303 64.6153C87.5866 56.3317 98.6063 51.7615 110.318 51.7615H119.699C131.41 51.7615 142.43 56.3317 150.713 64.6153C158.997 72.8989 163.567 83.9186 163.567 95.6298V106.108C163.567 107.852 162.154 109.265 160.41 109.265ZM72.7634 102.951H157.253V95.6298C157.253 74.9284 140.4 58.0756 119.699 58.0756H110.318C89.6162 58.0907 72.7634 74.9284 72.7634 95.6449V102.951Z" fill="#06677C"/>
<path d="M43.6273 51.6257C29.3904 51.6257 17.8145 40.0498 17.8145 25.8129C17.8145 11.5759 29.3904 0 43.6273 0C57.8642 0 69.4402 11.5759 69.4402 25.8129C69.4552 40.0498 57.8642 51.6257 43.6273 51.6257ZM43.6273 6.31416C32.8782 6.31416 24.1286 15.0638 24.1286 25.8129C24.1286 36.562 32.8782 45.3116 43.6273 45.3116C54.3764 45.3116 63.1411 36.562 63.1411 25.8129C63.1411 15.0638 54.3915 6.31416 43.6273 6.31416Z" fill="#06677C"/>
<path d="M69.6361 97.2682H3.15708C1.41317 97.2682 0 95.8551 0 94.1112V84.7752C0 74.2366 4.1042 64.3294 11.5609 56.8727C19.0176 49.416 28.9248 45.3118 39.4635 45.3118H47.8072C55.2188 45.3118 62.435 47.3714 68.689 51.2952C74.7626 55.0987 79.7087 60.4808 82.956 66.8551C83.7528 68.4035 83.1364 70.3128 81.5729 71.1096C80.0244 71.9064 78.1151 71.29 77.3183 69.7265C71.6506 58.5565 60.3302 51.6259 47.8072 51.6259H39.4484C21.1675 51.6259 6.31416 66.4943 6.31416 84.7752V90.9541H69.6361C71.38 90.9541 72.7932 92.3673 72.7932 94.1112C72.7932 95.8551 71.38 97.2682 69.6361 97.2682Z" fill="#06677C"/>
<path d="M186.386 51.6257C172.149 51.6257 160.573 40.0498 160.573 25.8129C160.573 11.5759 172.149 0 186.386 0C200.623 0 212.199 11.5759 212.199 25.8129C212.199 40.0498 200.608 51.6257 186.386 51.6257ZM186.386 6.31416C175.637 6.31416 166.887 15.0638 166.887 25.8129C166.887 36.562 175.622 45.3116 186.386 45.3116C197.15 45.3116 205.885 36.562 205.885 25.8129C205.885 15.0638 197.135 6.31416 186.386 6.31416Z" fill="#06677C"/>
<path d="M226.857 97.2682H160.378C158.634 97.2682 157.221 95.8551 157.221 94.1112C157.221 92.3673 158.634 90.9541 160.378 90.9541H223.7V84.7752C223.7 66.4943 208.832 51.6259 190.566 51.6259H182.207C169.684 51.6259 158.364 58.5565 152.666 69.7265C151.869 71.275 149.975 71.8913 148.411 71.1096C146.863 70.3128 146.247 68.4186 147.028 66.8551C150.291 60.4808 155.222 55.0987 161.295 51.2952C167.549 47.3864 174.78 45.3118 182.177 45.3118H190.536C201.074 45.3118 210.982 49.416 218.438 56.8727C225.895 64.3294 229.999 74.2366 229.999 84.7752V94.1112C230.014 95.8551 228.601 97.2682 226.857 97.2682Z" fill="#06677C"/>
</svg>
