<svg width="189" height="189" viewBox="0 0 189 189" fill="none" xmlns="http://www.w3.org/2000/svg">
<path fill-rule="evenodd" clip-rule="evenodd" d="M15.6489 119.061C23.6492 151.061 42.149 184.561 42.149 184.561L43.649 188.061C43.649 188.061 139.149 189.561 142.649 188.061C156.149 184.561 162.649 176.561 164.149 164.061C165.482 152.961 159.149 140.061 146.649 136.061C139.198 133.677 132.468 134.29 125.92 134.886C119.329 135.486 112.922 136.07 106.149 133.561C98.7836 130.833 94.8239 124.914 94.649 117.061C94.4334 107.383 101.499 99.3333 111.149 98.5613C123.649 97.5613 162.149 99.0613 162.149 99.0613L164.149 93.5613C164.149 93.5613 187.776 58.8558 188.649 33.5613C189.149 19.0613 176.296 4.95293 161.149 6.06129C140.649 7.56129 129.106 23.4901 134.649 39.0613C145.149 68.5613 156.149 93.5613 156.149 93.5613C156.149 93.5613 126.649 92.5613 107.65 94.5613C97.1015 95.6716 88.8765 106.729 89.1494 118.061C89.3779 127.548 92.1735 131.419 100.149 136.561C107.028 140.996 115.118 140.318 123.187 139.642C129.557 139.108 135.914 138.576 141.649 140.561C154.308 144.943 158.238 151.761 156.649 165.061C156.649 173.561 150.471 181.97 140.649 183.061C127.149 184.561 49.6494 183.561 49.6494 183.561C49.6494 183.561 76.1118 135.125 75.149 111.061C74.6488 98.5613 64.1494 85.5613 44.149 85.5613C26.6416 85.5613 11.6626 103.116 15.6489 119.061ZM174.149 33.5613C174.149 39.6364 169.225 44.5613 163.149 44.5613C157.074 44.5613 152.149 39.6364 152.149 33.5613C152.149 27.4862 157.074 22.5613 163.149 22.5613C169.225 22.5613 174.149 27.4862 174.149 33.5613ZM46.1494 125.561C52.2246 125.561 57.1494 120.636 57.1494 114.561C57.1494 108.486 52.2246 103.561 46.1494 103.561C40.0743 103.561 35.1494 108.486 35.1494 114.561C35.1494 120.636 40.0743 125.561 46.1494 125.561Z" fill="#DEFAFF"/>
<path d="M147.016 1C162.36 1 175 12.895 175 28.9255C175 32.731 174.053 38.1935 172.789 41.6084C164.821 58.7303 156.775 75.8628 148.762 92.9798C148.464 93.6175 147.769 93.9107 147.074 93.9107V94.0857H98.6704C88.3244 94.0857 80.0534 102.357 80.0534 112.703C80.0534 123.049 88.3244 131.32 98.6704 131.32H122.872C137.28 131.32 148.936 142.976 148.936 157.384C148.936 171.791 137.28 183.447 122.872 183.447H31.6489V183.272C30.9543 183.272 30.2594 182.979 29.9619 182.342C20.941 163.028 11.432 143.909 2.50177 124.57C1.0934 120.823 0 115.084 0 110.84C0 92.9113 14.2861 79.1915 31.707 79.1915C49.1281 79.1915 63.2979 92.9167 63.2979 110.84C63.2979 115.085 62.1957 120.829 60.7961 124.57C52.0982 142.957 43.3054 161.342 34.5578 179.724H122.872C135.281 179.724 145.213 169.792 145.213 157.383C145.213 144.974 135.281 135.043 122.872 135.043H98.6704C86.326 135.043 76.33 125.047 76.33 112.702C76.33 100.358 86.326 90.3617 98.6704 90.3617H144.166C136.64 74.0774 128.763 57.9299 121.36 41.6084C120.105 38.1992 119.149 32.732 119.149 28.9255C119.149 12.9004 131.672 1 147.016 1ZM147.016 4.7234C133.568 4.7234 122.872 14.8172 122.872 28.9255C122.872 32.0396 123.865 37.6519 124.85 40.3285L147.074 87.8019L169.299 40.3285C170.288 37.6554 171.277 32.0433 171.277 28.9255C171.277 14.8226 160.464 4.7234 147.016 4.7234ZM147.074 17.7553C153.221 17.7553 158.244 22.7786 158.244 28.9255C158.244 35.0727 153.221 40.0957 147.074 40.0957C140.927 40.0957 135.904 35.0727 135.904 28.9255C135.904 22.7786 140.927 17.7553 147.074 17.7553ZM147.074 21.4787C142.939 21.4787 139.627 24.7909 139.627 28.9255C139.627 33.0604 142.939 36.3723 147.074 36.3723C151.209 36.3723 154.521 33.0604 154.521 28.9255C154.521 24.7909 151.209 21.4787 147.074 21.4787ZM31.7066 82.9149C16.2227 82.9149 3.72304 94.8696 3.72304 110.84C3.72304 114.333 4.78737 119.982 5.93381 123.116C14.8569 141.963 23.9784 161.099 31.6486 177.222C40.0867 159.129 49.1015 140.716 57.3633 123.116C58.5066 119.979 59.5745 114.329 59.5745 110.84C59.5745 94.864 47.1908 82.9149 31.7066 82.9149ZM31.6489 95.9468C39.8523 95.9468 46.5426 102.637 46.5426 110.84C46.5426 119.044 39.8523 125.734 31.6489 125.734C23.4453 125.734 16.7553 119.044 16.7553 110.84C16.7553 102.637 23.4455 95.9468 31.6489 95.9468ZM31.6489 99.6702C25.4577 99.6702 20.4787 104.649 20.4787 110.84C20.4787 117.032 25.4579 122.011 31.6489 122.011C37.8398 122.011 42.8192 117.032 42.8192 110.84C42.8192 104.649 37.8398 99.6702 31.6489 99.6702Z" fill="#06677C"/>
<path d="M150.016 0C165.36 0 178 11.895 178 27.9255C178 31.731 177.053 37.1935 175.789 40.6084C167.821 57.7303 159.775 74.8628 151.762 91.9798C151.464 92.6175 150.769 92.9107 150.074 92.9107V93.0857H101.67C91.3244 93.0857 83.0534 101.357 83.0534 111.703C83.0534 122.049 91.3244 130.32 101.67 130.32H125.872C140.28 130.32 151.936 141.976 151.936 156.384C151.936 170.791 140.28 182.447 125.872 182.447H34.6489V182.272C33.9543 182.272 33.2594 181.979 32.9619 181.342C23.941 162.028 14.432 142.909 5.50177 123.57C4.0934 119.823 3 114.084 3 109.84C3 91.9113 17.2861 78.1915 34.707 78.1915C52.1281 78.1915 66.2979 91.9167 66.2979 109.84C66.2979 114.085 65.1957 119.829 63.7961 123.57C55.0982 141.957 46.3054 160.342 37.5578 178.724H125.872C138.281 178.724 148.213 168.792 148.213 156.383C148.213 143.974 138.281 134.043 125.872 134.043H101.67C89.326 134.043 79.33 124.047 79.33 111.702C79.33 99.3577 89.326 89.3617 101.67 89.3617H147.166C139.64 73.0774 131.763 56.9299 124.36 40.6084C123.105 37.1992 122.149 31.732 122.149 27.9255C122.149 11.9004 134.672 0 150.016 0ZM150.016 3.7234C136.568 3.7234 125.872 13.8172 125.872 27.9255C125.872 31.0396 126.865 36.6519 127.85 39.3285L150.074 86.8019L172.299 39.3285C173.288 36.6554 174.277 31.0433 174.277 27.9255C174.277 13.8226 163.464 3.7234 150.016 3.7234ZM150.074 16.7553C156.221 16.7553 161.244 21.7786 161.244 27.9255C161.244 34.0727 156.221 39.0957 150.074 39.0957C143.927 39.0957 138.904 34.0727 138.904 27.9255C138.904 21.7786 143.927 16.7553 150.074 16.7553ZM150.074 20.4787C145.939 20.4787 142.627 23.7909 142.627 27.9255C142.627 32.0604 145.939 35.3723 150.074 35.3723C154.209 35.3723 157.521 32.0604 157.521 27.9255C157.521 23.7909 154.209 20.4787 150.074 20.4787ZM34.7066 81.9149C19.2227 81.9149 6.72304 93.8696 6.72304 109.84C6.72304 113.333 7.78737 118.982 8.93381 122.116C17.8569 140.963 26.9784 160.099 34.6486 176.222C43.0867 158.129 52.1015 139.716 60.3633 122.116C61.5066 118.979 62.5745 113.329 62.5745 109.84C62.5745 93.864 50.1908 81.9149 34.7066 81.9149ZM34.6489 94.9468C42.8523 94.9468 49.5426 101.637 49.5426 109.84C49.5426 118.044 42.8523 124.734 34.6489 124.734C26.4453 124.734 19.7553 118.044 19.7553 109.84C19.7553 101.637 26.4455 94.9468 34.6489 94.9468ZM34.6489 98.6702C28.4577 98.6702 23.4787 103.649 23.4787 109.84C23.4787 116.032 28.4579 121.011 34.6489 121.011C40.8398 121.011 45.8192 116.032 45.8192 109.84C45.8192 103.649 40.8398 98.6702 34.6489 98.6702Z" fill="#06677C"/>
</svg>
