<svg width="93" height="75" viewBox="0 0 93 75" fill="none" xmlns="http://www.w3.org/2000/svg">
<circle cx="35" cy="8" r="6" fill="#DEFAFF"/>
<circle cx="70.5" cy="21.5" r="8.5" fill="#DEFAFF"/>
<path d="M20.3161 39.0099H6.2C6.08954 39.0099 6 39.0994 6 39.2099V52.3099C6 52.4203 6.08954 52.5099 6.2 52.5099H9.29529C9.40757 52.5099 9.49785 52.6023 9.49524 52.7145L9.00476 73.8052C9.00215 73.9175 9.09243 74.0099 9.2047 74.0099H81.7961C81.9081 74.0099 81.9982 73.918 81.9961 73.806L81.5168 48.8842C81.5127 48.6716 81.7878 48.6057 81.8735 48.8003C84.8654 55.5969 83.5793 64.827 84 66.5098C84.5 68.5097 86.0477 70.544 88 70.5098C90.2088 70.471 91.3014 69.1057 92 67.0099C92.9895 64.0413 91.5313 55.1986 91.5005 55.0128C91.4995 55.007 91.5003 55.0132 91.4998 55.0073C91.485 54.8193 90.6391 44.2641 86.5 39.5099C82.6005 35.0309 77.5 33.0098 72.5 32.5098C65.3826 31.798 59.2104 38.241 58.5571 38.9473C58.5184 38.9891 58.4674 39.0098 58.4104 39.0098H53.6843C53.5802 39.0098 53.4938 38.9362 53.4838 38.8326C53.3382 37.3248 52.1516 26.6052 47.5 22.5099C44.0164 19.4429 41.1389 17.8589 36.5 18.0099C32.7309 18.1325 30.5215 19.2533 27.5 21.5099C22.007 25.6122 20.6738 37.2544 20.5168 38.8321C20.5065 38.9355 20.4201 39.0099 20.3161 39.0099Z" fill="#DEFAFF"/>
<path d="M48.9994 37.9708C48.2608 29.4028 45.214 21.3109 38.7677 18.3743C36.7712 17.4678 34.6812 17 32.4976 17C30.314 17 28.1928 17.4678 26.2276 18.3743C19.316 21.7869 16.2698 28.9561 16 37.9708M22 38C22.0001 35.144 22.871 32.2588 24.0752 29.5441C24.1064 29.4856 24.1999 29.4271 24.2623 29.4564C24.3559 29.4564 24.3871 29.5441 24.3871 29.6026L24.3949 37.4948H40.616L40.6081 29.6026C40.6081 29.5148 40.6705 29.4564 40.7329 29.4564C40.7953 29.4271 40.8889 29.4856 40.9201 29.5441C42.7917 33.6377 42.1681 34.1628 42.6358 38" stroke="#05529C" stroke-miterlimit="10"/>
<path d="M32.448 14.6988C36.2309 14.6988 39.2975 11.6322 39.2975 7.84941C39.2975 4.06659 36.2309 1 32.448 1C28.6652 1 25.5986 4.06659 25.5986 7.84941C25.5986 11.6322 28.6652 14.6988 32.448 14.6988Z" stroke="#05529C" stroke-miterlimit="10"/>
<path d="M4.58984 51.5002V73.3335H57.9416V46.9187" stroke="#05529C" stroke-miterlimit="10"/>
<path d="M48.5 51.5L1.39551 51.5259V38.4106H53.5" stroke="#05529C" stroke-miterlimit="10"/>
<path d="M77.2004 73.8865V47.3182C77.2004 47.226 77.2618 47.1339 77.3539 47.1032C77.4461 47.0724 77.5382 47.1339 77.5997 47.226C79.8111 52.4168 80.0876 59.9113 79.6268 65.1635C79.3811 68.0507 81.1012 69.2486 82.6676 69.3714C82.7905 69.3714 82.8826 69.4021 83.0055 69.4021C84.9098 69.4021 86.937 67.9586 87.2134 65.1328C88.3191 52.8468 84.9712 37.5816 75.0503 33.0972C72.6853 31.93 70.1667 31.3464 67.5866 31.3464C65.0066 31.3464 62.488 31.93 60.1229 33.0972C50.202 37.5816 46.8541 52.8468 47.9598 65.1328C48.2055 67.9586 50.2327 69.4021 52.1678 69.4021C52.2906 69.4021 52.3828 69.4021 52.5056 69.3714C54.0721 69.2486 55.7921 68.0507 55.5464 65.1635C55.0857 59.9113 55.3621 52.4168 57.5736 47.226C57.6043 47.1339 57.6964 47.0724 57.8193 47.1032C57.9114 47.1339 57.9729 47.1953 57.9729 47.3182V73.3336" stroke="#05529C" stroke-miterlimit="10"/>
<path d="M67.5562 28.5822C72.1194 28.5822 75.8185 24.8831 75.8185 20.3199C75.8185 15.7568 72.1194 12.0576 67.5562 12.0576C62.9931 12.0576 59.2939 15.7568 59.2939 20.3199C59.2939 24.8831 62.9931 28.5822 67.5562 28.5822Z" stroke="#05529C" stroke-miterlimit="10"/>
</svg>
