<svg width="64" height="80" viewBox="0 0 64 80" fill="none" xmlns="http://www.w3.org/2000/svg">
<path d="M6 18.5L19.5 4H64V79.5H6V18.5Z" fill="#DEFAFF"/>
<path d="M1.24707 15.7715H16.0723V1" stroke="#05529C" stroke-miterlimit="10"/>
<path d="M58.9607 70.1218V76.4986H1.24707V15.7715L16.0723 1H58.9607V26.6415V70.1218Z" stroke="#05529C" stroke-miterlimit="10"/>
<path d="M49.059 64.2829C46.9604 64.9824 44.3505 65.3322 41.2563 65.3322C35.7405 65.3322 31.1665 63.7717 27.5072 60.6506C23.848 57.5294 21.4803 53.2245 20.4309 47.7894L20.0273 44.6414C19.8659 42.6234 19.8659 40.6593 20.0273 38.749L20.4847 35.6009C21.5879 30.2197 23.9825 25.9686 27.6956 22.7936C31.4086 19.6187 35.9827 18.0312 41.3908 18.0312C44.4043 18.0312 46.9873 18.381 49.1936 19.1075" stroke="#05529C" stroke-miterlimit="10"/>
<path d="M11.0137 37.4307H43.0589" stroke="#05529C" stroke-miterlimit="10"/>
<path d="M11.0137 46.4172H40.0185" stroke="#05529C" stroke-miterlimit="10"/>
<path d="M49.059 64.2829C46.9604 64.9824 44.3505 65.3322 41.2563 65.3322C35.7405 65.3322 31.1665 63.7717 27.5072 60.6506C23.848 57.5294 21.4803 53.2245 20.4309 47.7894L20.0273 44.6414C19.8659 42.6234 19.8659 40.6593 20.0273 38.749L20.4847 35.6009C21.5879 30.2197 23.9825 25.9686 27.6956 22.7936C31.4086 19.6187 35.9827 18.0312 41.3908 18.0312C44.4043 18.0312 46.9873 18.381 49.1936 19.1075" stroke="#05529C" stroke-miterlimit="10"/>
<path d="M11.0137 37.4307H43.0589" stroke="#05529C" stroke-miterlimit="10"/>
<path d="M11.0137 46.4172H40.0185" stroke="#05529C" stroke-miterlimit="10"/>
</svg>
