<svg width="73" height="70" viewBox="0 0 73 70" fill="none" xmlns="http://www.w3.org/2000/svg">
<circle cx="39.5" cy="36.5" r="33.5" fill="#DEFAFF"/>
<path d="M37.9061 13C36.9446 13 36.0226 13.3819 35.3428 14.0617C34.663 14.7416 34.281 15.6636 34.281 16.625C34.281 17.5864 34.663 18.5084 35.3428 19.1883C36.0226 19.8681 36.9446 20.25 37.9061 20.25C38.8675 20.25 39.7895 19.8681 40.4693 19.1883C41.1491 18.5084 41.5311 17.5864 41.5311 16.625C41.5311 15.6636 41.1491 14.7416 40.4693 14.0617C39.7895 13.3819 38.8675 13 37.9061 13ZM37.0361 24.5275C34.1602 24.7692 26.306 31.0283 26.306 31.0283C25.8227 31.3908 25.9677 31.3667 26.3544 32.0433C26.741 32.6958 26.6927 32.7442 27.1519 32.43C27.6352 32.1158 28.4327 31.6083 29.7619 30.7867C34.8852 27.5 30.5835 35.0883 28.3844 47.8725C27.5144 54.2042 33.2177 50.9417 34.6919 49.975C36.1419 49.0325 40.0327 46.35 40.4194 46.0842C40.9511 45.7217 40.5644 45.4317 40.1536 44.8275C39.8636 44.4167 39.5736 44.7067 39.5736 44.7067C38.0027 45.7458 35.1269 47.9208 34.7402 46.5433C34.281 45.1658 37.2294 35.7167 38.8486 29.2158C39.1144 27.6692 39.8394 24.2858 37.0361 24.5275Z" fill="#05529C"/>
<circle cx="35" cy="35" r="34.5" stroke="#05529C"/>
</svg>
