<svg width="75" height="72" viewBox="0 0 75 72" fill="none" xmlns="http://www.w3.org/2000/svg">
<path d="M52.9831 53.662V71.3002C52.9831 71.4107 53.0727 71.5002 53.1831 71.5002L66.7831 71.5016C66.8936 71.5016 66.9831 71.412 66.9831 71.3016V53.5274C66.9831 53.3077 67.273 53.2517 67.3489 53.4579C67.8645 54.8574 68.7662 57.513 68.9831 59.5016C69.297 62.3793 68.9918 65.416 68.9833 66.9383C68.9831 66.9801 68.9965 67.0199 69.0205 67.0542C69.7129 68.0477 69.7592 68.8951 70.9831 69.0016C72.3859 69.1236 73.3535 68.261 73.9831 67.0016C75.4831 64.0014 75 56 71.9831 49.0016C69.6463 43.5806 65.8861 40.9265 59.9834 41.0015C53.8525 41.0795 50.0193 45.4194 47.4827 51.0014C44.9833 56.5014 44.4825 64.0017 45.4831 66.5016C46.1073 68.061 47.3263 69.2777 48.9831 69.0016C50.3451 68.7746 51.4835 67.8823 51.4831 66.5016C51.4825 64.0017 50.9835 62.8528 50.9831 60.5016C50.9827 57.1597 52.0859 54.6451 52.6538 53.5721C52.7464 53.3972 52.9831 53.4641 52.9831 53.662Z" fill="#DEFAFF"/>
<path d="M4.5 14.5L4 47.5H48V45.5C49 42.5 51 41.5 53.5 40C53.5 40 51.9916 33.0803 54 29.5C55.4202 26.9684 59.5 24.5 59.5 24.5V14.5H43V3H20V14.5H4.5Z" fill="#DEFAFF"/>
<circle cx="60.5" cy="33.5" r="5.5" fill="#DEFAFF"/>
<path d="M43.603 45.5908H1.31055V12.791H56.4431V23.6327" stroke="#05529C" stroke-miterlimit="10"/>
<path d="M40.4053 1H17.373V45.5907H40.4053V1Z" fill="white" stroke="#05529C" stroke-miterlimit="10"/>
<path d="M32.7868 5.99601H30.0139V3.22314H27.7406V5.99601H24.9678V8.26926H27.7406V11.0421H30.0139V8.26926H32.7868V5.99601Z" fill="#05529C"/>
<path d="M33.9356 15.0891H23.8184V23.6325H33.9356V15.0891Z" stroke="#05529C" stroke-miterlimit="10"/>
<path d="M33.9356 26.3057H23.8184V34.8491H33.9356V26.3057Z" stroke="#05529C" stroke-miterlimit="10"/>
<path d="M12.9764 16.6631H5.70703V25.2065H12.9764V16.6631Z" stroke="#05529C" stroke-miterlimit="10"/>
<path d="M12.9764 27.8794H5.70703V36.4228H12.9764V27.8794Z" stroke="#05529C" stroke-miterlimit="10"/>
<path d="M52.0468 23.6327V16.6631H44.7773V25.2065H50.7477H52.0468V23.6327Z" stroke="#05529C" stroke-miterlimit="10"/>
<path d="M49.1989 27.8794H44.7773V36.4228H49.1989" stroke="#05529C" stroke-miterlimit="10"/>
<path d="M64.1372 71.2959V52.2606C64.1372 52.1856 64.1871 52.1357 64.2621 52.1107C64.312 52.0857 64.412 52.1357 64.4369 52.2106C66.0607 56.0077 66.2605 61.4785 65.9108 65.3255C65.711 67.4489 66.985 68.2982 68.1341 68.3982C68.209 68.3982 68.309 68.3982 68.3839 68.3982C69.7828 68.3982 71.2567 67.349 71.4565 65.2756C72.2559 56.2825 69.8078 45.1161 62.5634 41.8436C60.8397 40.9943 58.9911 40.5696 57.1176 40.5696C55.219 40.5696 53.3954 40.9943 51.6718 41.8436C44.4273 45.1411 41.9792 56.2825 42.7786 65.2756C42.9535 67.349 44.4523 68.3982 45.8512 68.3982C45.9262 68.3982 46.0261 68.3982 46.101 68.3982C47.2502 68.2982 48.4992 67.4239 48.3243 65.3255C47.9746 61.4785 48.1994 56.0077 49.7982 52.2106C49.8232 52.1357 49.8981 52.0857 49.9731 52.1107C50.048 52.1357 50.098 52.1856 50.098 52.2606V71.2959" stroke="#05529C" stroke-miterlimit="10"/>
<path d="M57.0932 38.5712C60.4319 38.5712 63.1385 35.8646 63.1385 32.5258C63.1385 29.1871 60.4319 26.4805 57.0932 26.4805C53.7544 26.4805 51.0479 29.1871 51.0479 32.5258C51.0479 35.8646 53.7544 38.5712 57.0932 38.5712Z" stroke="#05529C" stroke-miterlimit="10"/>
</svg>
