<svg width="75" height="84" viewBox="0 0 75 84" fill="none" xmlns="http://www.w3.org/2000/svg">
<path d="M61 3H20L6 17.5V74H46C46 74 46.4381 75.9003 47 77C48.3209 79.5848 52 82 52 82V83.5H69.5V81.5C69.5 81.5 72.3749 78.8601 73.5 75C74.9207 70.126 74 59.5 74 59.5C73.5 58.5 72.7456 57.6083 71.5 57.5C70.0972 57.378 69 58 68.5 59.5V57C68.5 56 67.5 54 65 54.5C62.5 55 63 56 62.5 57C61.5 56.5 61 48 61 48V3Z" fill="#DEFAFF"/>
<path d="M1 14.9917H15.0768V1" stroke="#05529C" stroke-miterlimit="10"/>
<path d="M55.7179 46.5509V1H15.0768L1 14.9917V72.576H38.6327" stroke="#05529C" stroke-miterlimit="10" stroke-linejoin="round"/>
<path d="M47.2041 80.8063V79.6994L42.8902 74.5342C42.6916 74.3071 42.5213 74.0517 42.3794 73.7963C40.9604 71.242 40.3076 68.2337 40.3076 65.3388V56.5125C40.3076 55.0083 40.4495 53.7595 42.0388 53.7595C43.6281 53.7595 46.0689 56.3422 46.0689 57.8463V64.7428V39.9665C46.0689 38.4624 47.3744 37.2136 48.9353 37.2136C50.5246 37.2136 51.8018 38.4624 51.8018 39.9665V55.5759V53.2203C51.8018 51.7161 53.1073 50.4674 54.6682 50.4674C56.2575 50.4674 57.5347 51.7161 57.5347 53.2203V56.7111V55.4056C57.5347 53.9014 58.8402 52.6527 60.4011 52.6527C61.9904 52.6527 63.2675 53.9014 63.2675 55.4056V58.9816V57.5909C63.2675 56.0867 64.5731 54.838 66.134 54.838C67.7233 54.838 69.0004 56.0867 69.0004 57.5909V65.3104C69.0004 69.2554 68.0922 72.9732 66.5881 76.6059C66.4178 77.0033 66.2191 77.3438 65.9637 77.6844L64.4312 79.6711V80.7779" stroke="#00539D" stroke-miterlimit="10" stroke-linejoin="round"/>
<path d="M20.7812 27.9617H44.621" stroke="#05529C" stroke-miterlimit="10"/>
<path d="M20.7812 22.5127H48.9916" stroke="#05529C" stroke-miterlimit="10"/>
<path d="M11.0464 28.2455C12.7079 28.2455 14.0548 26.8986 14.0548 25.2371C14.0548 23.5756 12.7079 22.2288 11.0464 22.2288C9.38497 22.2288 8.03809 23.5756 8.03809 25.2371C8.03809 26.8986 9.38497 28.2455 11.0464 28.2455Z" stroke="#05529C" stroke-miterlimit="10"/>
<path d="M20.7812 43.8545H39.4273" stroke="#05529C" stroke-miterlimit="10"/>
<path d="M20.7812 38.4336H40.0801" stroke="#05529C" stroke-miterlimit="10"/>
<path d="M11.0464 44.1668C12.7079 44.1668 14.0548 42.82 14.0548 41.1585C14.0548 39.497 12.7079 38.1501 11.0464 38.1501C9.38497 38.1501 8.03809 39.497 8.03809 41.1585C8.03809 42.82 9.38497 44.1668 11.0464 44.1668Z" stroke="#05529C" stroke-miterlimit="10"/>
<path d="M20.7812 59.7764H33.9499" stroke="#05529C" stroke-miterlimit="10"/>
<path d="M20.7812 54.3555H35.3405" stroke="#05529C" stroke-miterlimit="10"/>
<path d="M11.0464 60.0599C12.7079 60.0599 14.0548 58.713 14.0548 57.0516C14.0548 55.3901 12.7079 54.0432 11.0464 54.0432C9.38497 54.0432 8.03809 55.3901 8.03809 57.0516C8.03809 58.713 9.38497 60.0599 11.0464 60.0599Z" stroke="#05529C" stroke-miterlimit="10"/>
</svg>
